# xmcd
#
# Track frame offsets:
#	150
#	18376
#	34941
#	53166
#	73624
#	86917
#	117820
#	135057
#	152825
#	167095
#	194516
#
# Disc length: 2838 seconds
#
# Revision: 1
# Processed by: cddbd v1.5.2PL0 Copyright (c) Steve Scherf et al.
# Submitted via: audiograbber 1.83.01
#
DISCID=8e0b140b
DTITLE=Treetop Flyers - The Mountain Moves
DYEAR=2013
DGENRE=Americana
TTITLE0=Things Will Change
TTITLE1=Houses Are Burning
TTITLE2=Waiting On You
TTITLE3=Rose Is In The Yard
TTITLE4=She's Gotta Run
TTITLE5=Haunted House
TTITLE6=Postcards
TTITLE7=Making Time
TTITLE8=Picture Show
TTITLE9=Storm Will Pass
TTITLE10=Is It All Worth It
EXTD=Loose Music (UK and Europe) - Partisan Records (US and Canada]\n\n"Debut album
EXTD='The Mountain Moves' is chock full of lush harmonies, warm arrangements a
EXTD=nd billowing acoustic guitars as fresh as a breeze looming in from San Fra
EXTD=ncisco harbour." Clash\n\n"Sounding fresh, vibrant and full of great innov
EXTD=ative ideas, they allow a host of influences, both of particular acts and 
EXTD=songs merge with their own music." 8/10 Americana UK\n\n"An album that ooz
EXTD=es quality, demands repeated listens, and almost certainly signals the eme
EXTD=rgence of a major new talent." ***** Get Ready To Rock
EXTT0=
EXTT1=
EXTT2=
EXTT3=
EXTT4=
EXTT5=
EXTT6=
EXTT7=
EXTT8=
EXTT9=
EXTT10=
PLAYORDER=
